<mxfile host="app.diagrams.net" modified="2024-03-18T04:31:12.236Z" agent="Mozilla/5.0 (Windows NT 10.0; Win64; x64) AppleWebKit/537.36 (KHTML, like Gecko) Chrome/122.0.0.0 Safari/537.36 Edg/122.0.0.0" etag="qqXpSSQL1QF08devYL8J" version="24.0.7" type="device">
  <diagram name="Page-1" id="lFO9zxSmf-yXD4ZV_UkX">
    <mxGraphModel dx="1123" dy="721" grid="1" gridSize="10" guides="1" tooltips="1" connect="1" arrows="1" fold="1" page="1" pageScale="1" pageWidth="850" pageHeight="1100" math="0" shadow="0">
      <root>
        <mxCell id="0" />
        <mxCell id="1" parent="0" />
        <mxCell id="Mo8u7XhJIDmuvhjuj3WV-31" value="Process Business Edit Laporan Temuan Patrol" style="swimlane;html=1;childLayout=stackLayout;resizeParent=1;resizeParentMax=0;startSize=20;horizontal=0;horizontalStack=1;whiteSpace=wrap;" vertex="1" parent="1">
          <mxGeometry x="290" y="100" width="420" height="900" as="geometry">
            <mxRectangle x="210" y="20" width="40" height="190" as="alternateBounds" />
          </mxGeometry>
        </mxCell>
        <mxCell id="Mo8u7XhJIDmuvhjuj3WV-32" value="EHS Atau Dept Head EHS" style="swimlane;html=1;startSize=20;" vertex="1" parent="Mo8u7XhJIDmuvhjuj3WV-31">
          <mxGeometry x="20" width="400" height="900" as="geometry">
            <mxRectangle x="20" width="40" height="480" as="alternateBounds" />
          </mxGeometry>
        </mxCell>
        <mxCell id="Mo8u7XhJIDmuvhjuj3WV-33" style="edgeStyle=orthogonalEdgeStyle;rounded=0;orthogonalLoop=1;jettySize=auto;html=1;" edge="1" parent="Mo8u7XhJIDmuvhjuj3WV-32" source="Mo8u7XhJIDmuvhjuj3WV-34" target="Mo8u7XhJIDmuvhjuj3WV-36">
          <mxGeometry relative="1" as="geometry" />
        </mxCell>
        <mxCell id="Mo8u7XhJIDmuvhjuj3WV-34" value="Login" style="points=[[0.25,0,0],[0.5,0,0],[0.75,0,0],[1,0.25,0],[1,0.5,0],[1,0.75,0],[0.75,1,0],[0.5,1,0],[0.25,1,0],[0,0.75,0],[0,0.5,0],[0,0.25,0]];shape=mxgraph.bpmn.task;whiteSpace=wrap;rectStyle=rounded;size=10;html=1;container=1;expand=0;collapsible=0;taskMarker=abstract;" vertex="1" parent="Mo8u7XhJIDmuvhjuj3WV-32">
          <mxGeometry x="157.5" y="100" width="85" height="30" as="geometry" />
        </mxCell>
        <mxCell id="Mo8u7XhJIDmuvhjuj3WV-35" style="edgeStyle=orthogonalEdgeStyle;rounded=0;orthogonalLoop=1;jettySize=auto;html=1;" edge="1" parent="Mo8u7XhJIDmuvhjuj3WV-32" source="Mo8u7XhJIDmuvhjuj3WV-36" target="Mo8u7XhJIDmuvhjuj3WV-38">
          <mxGeometry relative="1" as="geometry" />
        </mxCell>
        <mxCell id="Mo8u7XhJIDmuvhjuj3WV-36" value="Membuka halaman Laporan Patrol" style="points=[[0.25,0,0],[0.5,0,0],[0.75,0,0],[1,0.25,0],[1,0.5,0],[1,0.75,0],[0.75,1,0],[0.5,1,0],[0.25,1,0],[0,0.75,0],[0,0.5,0],[0,0.25,0]];shape=mxgraph.bpmn.task;whiteSpace=wrap;rectStyle=rounded;size=10;html=1;container=1;expand=0;collapsible=0;taskMarker=abstract;" vertex="1" parent="Mo8u7XhJIDmuvhjuj3WV-32">
          <mxGeometry x="142.5" y="150" width="115" height="60" as="geometry" />
        </mxCell>
        <mxCell id="Mo8u7XhJIDmuvhjuj3WV-37" style="edgeStyle=orthogonalEdgeStyle;rounded=0;orthogonalLoop=1;jettySize=auto;html=1;" edge="1" parent="Mo8u7XhJIDmuvhjuj3WV-32" source="Mo8u7XhJIDmuvhjuj3WV-38" target="Mo8u7XhJIDmuvhjuj3WV-42">
          <mxGeometry relative="1" as="geometry" />
        </mxCell>
        <mxCell id="Mo8u7XhJIDmuvhjuj3WV-38" value="Menekan tombol see detail pada jadwal laporan patrol" style="points=[[0.25,0,0],[0.5,0,0],[0.75,0,0],[1,0.25,0],[1,0.5,0],[1,0.75,0],[0.75,1,0],[0.5,1,0],[0.25,1,0],[0,0.75,0],[0,0.5,0],[0,0.25,0]];shape=mxgraph.bpmn.task;whiteSpace=wrap;rectStyle=rounded;size=10;html=1;container=1;expand=0;collapsible=0;taskMarker=abstract;" vertex="1" parent="Mo8u7XhJIDmuvhjuj3WV-32">
          <mxGeometry x="138.75" y="240" width="122.5" height="60" as="geometry" />
        </mxCell>
        <mxCell id="Mo8u7XhJIDmuvhjuj3WV-39" style="edgeStyle=orthogonalEdgeStyle;rounded=0;orthogonalLoop=1;jettySize=auto;html=1;" edge="1" parent="Mo8u7XhJIDmuvhjuj3WV-32" source="Mo8u7XhJIDmuvhjuj3WV-40" target="Mo8u7XhJIDmuvhjuj3WV-34">
          <mxGeometry relative="1" as="geometry" />
        </mxCell>
        <mxCell id="Mo8u7XhJIDmuvhjuj3WV-40" value="" style="points=[[0.145,0.145,0],[0.5,0,0],[0.855,0.145,0],[1,0.5,0],[0.855,0.855,0],[0.5,1,0],[0.145,0.855,0],[0,0.5,0]];shape=mxgraph.bpmn.event;html=1;verticalLabelPosition=bottom;labelBackgroundColor=#ffffff;verticalAlign=top;align=center;perimeter=ellipsePerimeter;outlineConnect=0;aspect=fixed;outline=standard;symbol=general;fillColor=#00FF00;strokeColor=#2D7600;fontColor=#ffffff;" vertex="1" parent="Mo8u7XhJIDmuvhjuj3WV-32">
          <mxGeometry x="185" y="50" width="30" height="30" as="geometry" />
        </mxCell>
        <mxCell id="Mo8u7XhJIDmuvhjuj3WV-49" style="edgeStyle=orthogonalEdgeStyle;rounded=0;orthogonalLoop=1;jettySize=auto;html=1;" edge="1" parent="Mo8u7XhJIDmuvhjuj3WV-32" source="Mo8u7XhJIDmuvhjuj3WV-42" target="Mo8u7XhJIDmuvhjuj3WV-48">
          <mxGeometry relative="1" as="geometry">
            <Array as="points">
              <mxPoint x="200" y="420" />
              <mxPoint x="200" y="420" />
            </Array>
          </mxGeometry>
        </mxCell>
        <mxCell id="Mo8u7XhJIDmuvhjuj3WV-42" value="Menekan tombol see detail pada laporan temuan" style="points=[[0.25,0,0],[0.5,0,0],[0.75,0,0],[1,0.25,0],[1,0.5,0],[1,0.75,0],[0.75,1,0],[0.5,1,0],[0.25,1,0],[0,0.75,0],[0,0.5,0],[0,0.25,0]];shape=mxgraph.bpmn.task;whiteSpace=wrap;rectStyle=rounded;size=10;html=1;container=1;expand=0;collapsible=0;taskMarker=abstract;" vertex="1" parent="Mo8u7XhJIDmuvhjuj3WV-32">
          <mxGeometry x="140" y="330" width="120" height="60" as="geometry" />
        </mxCell>
        <mxCell id="Mo8u7XhJIDmuvhjuj3WV-44" value="Menekan tombol Edit" style="points=[[0.25,0,0],[0.5,0,0],[0.75,0,0],[1,0.25,0],[1,0.5,0],[1,0.75,0],[0.75,1,0],[0.5,1,0],[0.25,1,0],[0,0.75,0],[0,0.5,0],[0,0.25,0]];shape=mxgraph.bpmn.task;whiteSpace=wrap;rectStyle=rounded;size=10;html=1;container=1;expand=0;collapsible=0;taskMarker=abstract;" vertex="1" parent="Mo8u7XhJIDmuvhjuj3WV-32">
          <mxGeometry x="37.5" y="490" width="120" height="60" as="geometry" />
        </mxCell>
        <mxCell id="Mo8u7XhJIDmuvhjuj3WV-45" style="edgeStyle=orthogonalEdgeStyle;rounded=0;orthogonalLoop=1;jettySize=auto;html=1;" edge="1" parent="Mo8u7XhJIDmuvhjuj3WV-32" source="Mo8u7XhJIDmuvhjuj3WV-46" target="Mo8u7XhJIDmuvhjuj3WV-47">
          <mxGeometry relative="1" as="geometry">
            <Array as="points">
              <mxPoint x="98" y="800" />
              <mxPoint x="200" y="800" />
            </Array>
          </mxGeometry>
        </mxCell>
        <mxCell id="Mo8u7XhJIDmuvhjuj3WV-46" value="Menekan tombol submit" style="points=[[0.25,0,0],[0.5,0,0],[0.75,0,0],[1,0.25,0],[1,0.5,0],[1,0.75,0],[0.75,1,0],[0.5,1,0],[0.25,1,0],[0,0.75,0],[0,0.5,0],[0,0.25,0]];shape=mxgraph.bpmn.task;whiteSpace=wrap;rectStyle=rounded;size=10;html=1;container=1;expand=0;collapsible=0;taskMarker=abstract;" vertex="1" parent="Mo8u7XhJIDmuvhjuj3WV-32">
          <mxGeometry x="37.5" y="680" width="120" height="60" as="geometry" />
        </mxCell>
        <mxCell id="Mo8u7XhJIDmuvhjuj3WV-47" value="" style="points=[[0.145,0.145,0],[0.5,0,0],[0.855,0.145,0],[1,0.5,0],[0.855,0.855,0],[0.5,1,0],[0.145,0.855,0],[0,0.5,0]];shape=mxgraph.bpmn.event;html=1;verticalLabelPosition=bottom;labelBackgroundColor=#ffffff;verticalAlign=top;align=center;perimeter=ellipsePerimeter;outlineConnect=0;aspect=fixed;outline=end;symbol=terminate;fillColor=#f8cecc;strokeColor=#b85450;gradientColor=#ea6b66;" vertex="1" parent="Mo8u7XhJIDmuvhjuj3WV-32">
          <mxGeometry x="185" y="840" width="30" height="30" as="geometry" />
        </mxCell>
        <mxCell id="Mo8u7XhJIDmuvhjuj3WV-50" style="edgeStyle=orthogonalEdgeStyle;rounded=0;orthogonalLoop=1;jettySize=auto;html=1;" edge="1" parent="Mo8u7XhJIDmuvhjuj3WV-32" source="Mo8u7XhJIDmuvhjuj3WV-48" target="Mo8u7XhJIDmuvhjuj3WV-44">
          <mxGeometry relative="1" as="geometry" />
        </mxCell>
        <mxCell id="Mo8u7XhJIDmuvhjuj3WV-48" value="" style="points=[[0.25,0.25,0],[0.5,0,0],[0.75,0.25,0],[1,0.5,0],[0.75,0.75,0],[0.5,1,0],[0.25,0.75,0],[0,0.5,0]];shape=mxgraph.bpmn.gateway2;html=1;verticalLabelPosition=bottom;labelBackgroundColor=#ffffff;verticalAlign=top;align=center;perimeter=rhombusPerimeter;outlineConnect=0;outline=none;symbol=none;gwType=exclusive;" vertex="1" parent="Mo8u7XhJIDmuvhjuj3WV-32">
          <mxGeometry x="175" y="430" width="50" height="50" as="geometry" />
        </mxCell>
        <mxCell id="Mo8u7XhJIDmuvhjuj3WV-52" value="Edit Data" style="text;html=1;align=center;verticalAlign=middle;resizable=0;points=[];autosize=1;strokeColor=none;fillColor=none;" vertex="1" parent="Mo8u7XhJIDmuvhjuj3WV-32">
          <mxGeometry x="30" y="435" width="70" height="30" as="geometry" />
        </mxCell>
        <mxCell id="Mo8u7XhJIDmuvhjuj3WV-53" value="Menekan Tombol hapus" style="points=[[0.25,0,0],[0.5,0,0],[0.75,0,0],[1,0.25,0],[1,0.5,0],[1,0.75,0],[0.75,1,0],[0.5,1,0],[0.25,1,0],[0,0.75,0],[0,0.5,0],[0,0.25,0]];shape=mxgraph.bpmn.task;whiteSpace=wrap;rectStyle=rounded;size=10;html=1;container=1;expand=0;collapsible=0;taskMarker=abstract;" vertex="1" parent="Mo8u7XhJIDmuvhjuj3WV-32">
          <mxGeometry x="242.5" y="580" width="120" height="60" as="geometry" />
        </mxCell>
        <mxCell id="Mo8u7XhJIDmuvhjuj3WV-54" style="edgeStyle=orthogonalEdgeStyle;rounded=0;orthogonalLoop=1;jettySize=auto;html=1;entryX=0.5;entryY=0;entryDx=0;entryDy=0;entryPerimeter=0;" edge="1" parent="Mo8u7XhJIDmuvhjuj3WV-32" source="Mo8u7XhJIDmuvhjuj3WV-48" target="Mo8u7XhJIDmuvhjuj3WV-53">
          <mxGeometry relative="1" as="geometry" />
        </mxCell>
        <mxCell id="Mo8u7XhJIDmuvhjuj3WV-55" value="Hapus Data" style="text;html=1;align=center;verticalAlign=middle;resizable=0;points=[];autosize=1;strokeColor=none;fillColor=none;" vertex="1" parent="Mo8u7XhJIDmuvhjuj3WV-32">
          <mxGeometry x="300" y="510" width="90" height="30" as="geometry" />
        </mxCell>
        <mxCell id="Mo8u7XhJIDmuvhjuj3WV-56" style="edgeStyle=orthogonalEdgeStyle;rounded=0;orthogonalLoop=1;jettySize=auto;html=1;entryX=0.5;entryY=0;entryDx=0;entryDy=0;entryPerimeter=0;exitX=0.5;exitY=1;exitDx=0;exitDy=0;exitPerimeter=0;" edge="1" parent="Mo8u7XhJIDmuvhjuj3WV-32" source="Mo8u7XhJIDmuvhjuj3WV-53" target="Mo8u7XhJIDmuvhjuj3WV-47">
          <mxGeometry relative="1" as="geometry">
            <mxPoint x="302.5714285714289" y="720" as="sourcePoint" />
            <Array as="points">
              <mxPoint x="303" y="800" />
              <mxPoint x="200" y="800" />
            </Array>
          </mxGeometry>
        </mxCell>
        <mxCell id="Mo8u7XhJIDmuvhjuj3WV-57" value="Mengisi formulir data" style="points=[[0.25,0,0],[0.5,0,0],[0.75,0,0],[1,0.25,0],[1,0.5,0],[1,0.75,0],[0.75,1,0],[0.5,1,0],[0.25,1,0],[0,0.75,0],[0,0.5,0],[0,0.25,0]];shape=mxgraph.bpmn.task;whiteSpace=wrap;rectStyle=rounded;size=10;html=1;container=1;expand=0;collapsible=0;taskMarker=abstract;" vertex="1" parent="Mo8u7XhJIDmuvhjuj3WV-32">
          <mxGeometry x="37.5" y="580" width="120" height="60" as="geometry" />
        </mxCell>
        <mxCell id="Mo8u7XhJIDmuvhjuj3WV-59" style="edgeStyle=orthogonalEdgeStyle;rounded=0;orthogonalLoop=1;jettySize=auto;html=1;entryX=0.5;entryY=0;entryDx=0;entryDy=0;entryPerimeter=0;" edge="1" parent="Mo8u7XhJIDmuvhjuj3WV-32" source="Mo8u7XhJIDmuvhjuj3WV-44" target="Mo8u7XhJIDmuvhjuj3WV-57">
          <mxGeometry relative="1" as="geometry" />
        </mxCell>
        <mxCell id="Mo8u7XhJIDmuvhjuj3WV-60" style="edgeStyle=orthogonalEdgeStyle;rounded=0;orthogonalLoop=1;jettySize=auto;html=1;entryX=0.5;entryY=0;entryDx=0;entryDy=0;entryPerimeter=0;" edge="1" parent="Mo8u7XhJIDmuvhjuj3WV-32" source="Mo8u7XhJIDmuvhjuj3WV-57" target="Mo8u7XhJIDmuvhjuj3WV-46">
          <mxGeometry relative="1" as="geometry" />
        </mxCell>
      </root>
    </mxGraphModel>
  </diagram>
</mxfile>
